<?xml version="1.0" standalone="no"?>
<!DOCTYPE svg PUBLIC "-//W3C//DTD SVG 20010904//EN"
 "http://www.w3.org/TR/2001/REC-SVG-20010904/DTD/svg10.dtd">
<svg version="1.0" xmlns="http://www.w3.org/2000/svg"
 width="277.000000pt" height="276.000000pt" viewBox="0 0 277.000000 276.000000"
 preserveAspectRatio="xMidYMid meet">

<g transform="translate(0.000000,276.000000) scale(0.100000,-0.100000)"
fill="#000000" stroke="none">
<path d="M1058 2733 c-14 -16 -55 -79 -92 -140 -37 -62 -68 -113 -69 -113 -1
0 -60 11 -132 25 -159 31 -180 31 -209 2 -19 -19 -25 -43 -40 -167 -9 -79 -19
-146 -21 -148 -2 -3 -71 -21 -152 -41 -138 -34 -148 -38 -165 -67 -18 -30 -18
-33 7 -110 14 -43 30 -97 36 -119 6 -22 15 -50 20 -63 5 -13 7 -28 3 -33 -3
-5 -56 -47 -118 -94 -164 -122 -165 -127 -27 -287 l99 -114 -31 -55 c-16 -30
-50 -91 -73 -137 -41 -77 -43 -85 -31 -115 11 -28 30 -41 151 -100 l139 -68
-7 -67 c-21 -231 -21 -238 7 -266 25 -25 31 -26 139 -27 62 0 131 -3 153 -7
l40 -7 47 -135 c49 -139 69 -170 114 -170 13 0 84 25 156 56 l133 55 105 -110
c98 -104 107 -111 144 -111 36 0 45 7 145 111 l106 111 132 -56 c73 -31 142
-56 154 -56 52 0 67 23 121 187 16 50 36 99 42 109 11 14 38 18 165 23 213 8
202 -9 175 296 l-6 70 132 59 c135 61 163 83 163 130 0 13 -30 78 -67 144 -36
65 -66 125 -66 133 0 8 43 64 95 124 76 88 95 116 95 141 0 41 -14 56 -137
148 -56 41 -104 79 -107 84 -2 4 13 66 35 138 63 209 62 211 -126 254 -49 12
-106 25 -126 31 l-37 9 -11 88 c-25 197 -30 216 -52 235 -28 22 -60 21 -208
-8 -68 -13 -127 -23 -130 -20 -4 2 -36 52 -71 112 -80 137 -104 163 -146 163
-18 0 -34 -4 -36 -8 -4 -11 -210 -154 -228 -159 -9 -2 -70 34 -137 81 -69 49
-133 86 -146 86 -13 0 -35 -12 -49 -27z m337 -329 c15 4 72 38 126 76 55 39
103 70 108 70 8 0 61 -74 61 -85 0 -2 20 -36 45 -75 30 -47 53 -72 70 -76 14
-3 76 3 139 15 62 11 120 21 128 21 11 0 18 -24 28 -102 17 -139 27 -176 53
-192 12 -7 67 -23 122 -35 149 -33 147 -31 130 -83 -64 -198 -67 -216 -50
-245 9 -15 61 -61 116 -102 87 -64 98 -75 87 -90 -14 -18 -113 -135 -141 -166
-41 -46 -39 -57 57 -233 l45 -82 -123 -59 c-78 -37 -128 -67 -136 -81 -9 -16
-9 -51 -1 -140 6 -65 11 -125 11 -133 0 -12 -24 -16 -134 -19 -169 -4 -169 -3
-222 -166 -21 -64 -39 -119 -40 -121 -2 -2 -58 20 -124 48 -67 28 -132 51
-146 51 -19 0 -50 -26 -123 -102 l-98 -102 -98 102 c-70 73 -104 102 -121 102
-13 0 -79 -23 -145 -51 -66 -28 -122 -49 -123 -47 -2 2 -20 54 -41 116 -20 62
-47 125 -60 140 -23 26 -26 27 -159 30 -132 4 -136 5 -135 25 0 12 4 71 8 132
5 63 5 119 0 133 -7 17 -42 39 -134 82 -69 33 -125 63 -125 68 0 4 4 12 9 18
9 9 58 96 98 174 15 29 21 54 18 69 -4 14 -45 70 -93 124 l-87 100 35 26 c19
14 68 53 110 86 l75 61 -1 49 c-1 28 -15 95 -32 150 -17 54 -30 100 -29 101 1
2 53 14 114 28 137 32 159 40 171 63 6 10 17 74 26 142 9 69 18 127 21 130 3
2 62 -6 130 -19 90 -17 133 -21 152 -14 19 6 46 41 97 125 l71 117 117 -80
c98 -68 121 -79 143 -74z"/>
<path d="M1275 2150 c-204 -33 -403 -150 -519 -308 -51 -71 -102 -176 -127
-267 -32 -113 -32 -288 0 -399 63 -226 203 -396 410 -501 112 -56 206 -77 341
-78 134 0 217 17 327 68 221 102 369 281 438 528 24 86 22 284 -4 378 -44 159
-147 318 -269 415 -73 58 -218 129 -303 148 -86 20 -219 27 -294 16z m260
-175 c198 -50 355 -194 436 -400 20 -53 23 -77 23 -200 0 -123 -3 -147 -23
-200 -40 -101 -81 -165 -155 -239 -78 -78 -176 -134 -281 -161 -76 -19 -224
-19 -300 0 -216 55 -393 230 -450 445 -19 71 -19 239 0 310 56 211 231 387
440 445 69 18 237 19 310 0z"/>
<path d="M1458 1473 l-158 -158 -62 62 c-96 93 -121 101 -169 54 -51 -51 -43
-70 83 -198 156 -157 133 -162 366 70 101 100 190 195 199 211 28 53 -10 116
-70 116 -28 0 -51 -19 -189 -157z"/>
</g>
</svg>
