<?xml version="1.0" standalone="no"?>
<!DOCTYPE svg PUBLIC "-//W3C//DTD SVG 20010904//EN"
 "http://www.w3.org/TR/2001/REC-SVG-20010904/DTD/svg10.dtd">
<svg version="1.0" xmlns="http://www.w3.org/2000/svg"
 width="251.000000pt" height="277.000000pt" viewBox="0 0 251.000000 277.000000"
 preserveAspectRatio="xMidYMid meet">

<g transform="translate(0.000000,277.000000) scale(0.100000,-0.100000)"
fill="#000000" stroke="none">
<path d="M936 2756 c-21 -8 -55 -27 -75 -43 -41 -33 -91 -123 -91 -165 0 -26
-3 -28 -37 -28 -21 0 -56 -9 -78 -19 -80 -37 -115 -101 -115 -211 l0 -70 475
0 475 0 0 82 c0 69 -4 88 -25 124 -31 53 -79 83 -143 91 -48 5 -51 7 -57 41
-15 78 -73 155 -143 188 -48 23 -138 28 -186 10z"/>
<path d="M145 2351 c-48 -22 -97 -70 -122 -120 -17 -34 -18 -96 -21 -1024 -1
-662 1 -1002 8 -1027 15 -57 68 -120 125 -149 l49 -26 826 0 c918 0 856 -4
929 67 68 67 65 45 71 566 3 259 3 472 0 472 -3 -1 -35 -40 -72 -88 l-68 -87
0 -362 0 -363 -29 -32 -29 -33 -786 -3 c-876 -3 -843 -5 -872 63 -12 30 -14
167 -12 1001 l3 966 33 29 c18 16 43 29 57 29 l25 0 0 -915 c0 -1000 -2 -963
56 -985 15 -6 295 -10 700 -10 l676 0 29 29 29 29 0 212 0 212 -30 -25 c-49
-42 -133 -77 -252 -108 -62 -16 -119 -29 -125 -29 -10 0 -13 35 -13 144 0 233
15 265 259 573 l161 203 0 335 0 335 26 0 c33 0 61 -15 76 -43 9 -15 15 -91
18 -245 l5 -224 70 90 70 89 -5 159 c-5 157 -5 160 -35 204 -17 24 -51 58 -75
75 -44 29 -48 30 -182 33 l-138 4 0 -121 0 -121 -565 0 -565 0 0 120 0 120
-132 0 c-107 0 -141 -4 -173 -19z m809 -421 c25 -27 46 -55 46 -61 0 -18 -361
-379 -379 -379 -24 0 -211 191 -211 215 0 29 80 105 110 105 14 0 40 -15 62
-37 l38 -37 123 122 c79 79 129 122 143 122 13 0 40 -20 68 -50z m0 -510 c25
-27 46 -55 46 -61 0 -18 -361 -379 -379 -379 -24 0 -211 191 -211 215 0 29 80
105 110 105 14 0 40 -15 62 -37 l38 -37 123 122 c79 79 129 122 143 122 13 0
40 -20 68 -50z m0 -510 c25 -27 46 -55 46 -61 0 -18 -361 -379 -379 -379 -25
0 -211 191 -211 216 0 21 89 114 110 114 6 0 31 -19 56 -42 l45 -42 122 122
c79 79 129 122 143 122 13 0 40 -20 68 -50z"/>
<path d="M2343 2065 c-34 -36 -50 -45 -76 -45 -24 0 -41 -9 -64 -32 -78 -82
-724 -913 -746 -960 -29 -61 -47 -148 -47 -226 l0 -54 43 7 c105 18 198 68
273 147 34 35 603 752 708 891 24 31 28 44 23 78 -5 35 -1 48 24 82 16 22 29
50 29 62 0 36 -70 95 -112 95 -6 0 -31 -20 -55 -45z"/>
</g>
</svg>
