<?xml version="1.0" standalone="no"?>
<!DOCTYPE svg PUBLIC "-//W3C//DTD SVG 20010904//EN"
 "http://www.w3.org/TR/2001/REC-SVG-20010904/DTD/svg10.dtd">
<svg version="1.0" xmlns="http://www.w3.org/2000/svg"
 width="279.000000pt" height="279.000000pt" viewBox="0 0 279.000000 279.000000"
 preserveAspectRatio="xMidYMid meet">

<g transform="translate(0.000000,279.000000) scale(0.100000,-0.100000)"
fill="#000000" stroke="none">
<path d="M1180 2770 c-17 -17 -20 -33 -20 -108 l0 -88 -71 -23 c-39 -13 -101
-38 -137 -57 l-66 -35 -67 67 c-55 55 -71 66 -91 61 -31 -8 -298 -278 -298
-303 0 -10 30 -48 66 -85 l65 -66 -35 -69 c-19 -39 -45 -100 -57 -137 l-22
-67 -92 0 c-66 0 -96 -4 -104 -14 -8 -9 -11 -78 -9 -227 l3 -214 100 -5 100
-5 31 -85 c16 -47 43 -109 58 -139 l28 -54 -66 -66 c-36 -37 -66 -73 -66 -81
0 -19 290 -310 309 -310 7 0 44 30 82 66 l69 67 57 -31 c32 -17 92 -42 133
-56 l75 -25 5 -93 c3 -51 9 -99 13 -105 12 -18 432 -18 444 0 4 6 10 54 13
105 l5 93 75 25 c41 14 101 39 133 56 l57 31 69 -67 c38 -36 75 -66 82 -66 19
0 309 291 309 310 0 8 -30 44 -66 81 l-66 66 28 54 c15 30 42 92 58 139 l31
85 100 5 100 5 3 214 c2 149 -1 218 -9 227 -8 10 -38 14 -104 14 l-92 0 -22
67 c-12 37 -38 98 -57 137 l-35 69 65 66 c36 37 66 75 66 85 0 25 -267 295
-298 303 -20 5 -36 -6 -91 -61 l-67 -67 -66 35 c-36 19 -98 44 -137 57 l-71
23 0 88 c0 132 7 128 -235 128 -182 0 -196 -1 -215 -20z m260 -507 c0 -45 -5
-62 -22 -80 l-22 -23 -23 22 c-19 18 -23 32 -23 80 l0 58 45 0 45 0 0 -57z
m-320 -92 c0 -52 24 -118 60 -163 28 -34 30 -43 30 -117 l0 -81 -53 0 c-100 0
-157 -73 -122 -155 7 -19 10 -37 6 -40 -17 -10 -20 -67 -6 -100 7 -19 10 -37
6 -40 -17 -10 -21 -67 -7 -100 10 -22 11 -36 4 -43 -17 -17 -14 -86 5 -116 23
-35 73 -56 131 -56 36 0 46 -4 51 -20 10 -31 54 -79 88 -97 18 -9 54 -16 82
-16 28 0 64 7 82 16 34 18 78 66 88 97 6 18 15 20 106 20 l99 0 0 -35 c0 -33
-3 -35 -82 -74 -108 -53 -182 -71 -293 -71 -111 0 -185 18 -293 71 -386 189
-475 710 -176 1024 47 49 165 135 186 135 4 0 8 -17 8 -39z m626 0 c32 -21 83
-63 113 -94 59 -61 123 -155 115 -169 -3 -4 -47 -8 -99 -8 -101 0 -105 -2
-105 -61 0 -46 -21 -34 -70 39 -41 61 -49 67 -82 70 -21 2 -38 8 -38 13 0 6
13 27 30 47 36 45 60 111 60 163 0 22 4 39 8 39 5 0 35 -17 68 -39z m-130
-328 c19 -26 17 -33 -11 -33 -20 0 -25 5 -25 25 0 29 17 33 36 8z m154 -353
l0 -230 -325 0 c-318 0 -325 0 -325 20 0 17 7 20 50 20 37 0 55 5 70 20 23 23
24 30 8 53 -9 11 -31 17 -68 19 -48 3 -55 6 -58 26 -3 20 0 22 47 22 62 0 96
26 82 62 -7 19 -17 24 -67 28 -52 4 -59 8 -62 28 -3 20 0 22 52 22 45 0 58 4
70 21 15 22 11 48 -8 61 -6 4 -32 8 -58 8 -48 0 -64 10 -54 35 5 13 55 15 326
15 l320 0 0 -230z"/>
<path d="M213 550 c-92 -22 -171 -100 -200 -199 -41 -142 59 -307 207 -340 26
-6 213 -11 453 -11 394 0 408 1 427 20 15 15 20 33 20 70 l0 50 603 0 c578 0
606 -1 662 -20 32 -11 68 -20 79 -20 32 0 294 90 311 107 19 18 20 122 3 145
-7 9 -82 39 -166 66 l-153 51 -71 -25 -72 -24 -598 0 -598 0 0 48 c0 27 -7 57
-16 70 l-15 22 -422 -1 c-232 -1 -436 -4 -454 -9z m2362 -216 c60 -20 113 -39
117 -43 16 -14 -13 -30 -117 -65 l-111 -36 -59 20 c-56 19 -83 20 -672 20
l-613 0 0 50 0 50 613 1 c569 0 616 2 662 19 28 10 54 19 60 19 5 1 59 -15
120 -35z"/>
</g>
</svg>
